<svg xmlns="http://www.w3.org/2000/svg" version="1.1" xmlns:xlink="http://www.w3.org/1999/xlink" width="1500" height="1500" viewBox="0 0 1500 1500"><rect width="1500" height="1500" x="0" y="0" id="background" stroke="transparent" fill="#ffffff"></rect><svg xml:space="preserve" width="1000" height="1000" data-version="2" data-id="lg_exiu9cvNf1dRhidwBq" viewBox="0 0 476 384" x="250" y="250"><rect width="100%" height="100%" fill="transparent"></rect><path fill="#363636" d="M321.944 116.81V28.477a1.876 1.876 0 0 0-1.876-1.877h-28.143V5.963a1.876 1.876 0 0 0-1.876-1.876H147.458a1.876 1.876 0 0 0-1.876 1.876v20.638h-13.134c-11.37 0-20.638 9.25-20.638 20.639v161.353c0 9.306 7.58 16.886 16.886 16.886h176.363c9.306 0 16.885-7.58 16.885-16.886V165.29a13.133 13.133 0 0 0 11.258-12.983v-22.515a13.133 13.133 0 0 0-11.258-12.983m-3.752-86.455v33.771h-26.267V30.354zm-30.02 33.771h-11.256V7.84h11.257zM273.164 7.84v56.286h-11.257V7.84zm-16.886 0h1.877v56.286h-11.258V35.982a1.876 1.876 0 0 0-1.876-1.876 13.133 13.133 0 0 1-13.133-13.133 1.876 1.876 0 0 0-1.876-1.876h-52.534a1.876 1.876 0 0 0-1.876 1.876 13.133 13.133 0 0 1-13.134 13.133 1.876 1.876 0 0 0-1.876 1.876v28.143h-11.257V7.84zm-13.133 56.286h-78.8v-26.38a16.886 16.886 0 0 0 14.915-14.897h48.97a16.886 16.886 0 0 0 14.915 14.897zM132.448 30.354h13.134v33.771h-13.134a16.905 16.905 0 0 1 0-33.771m172.61 191.372H128.697a13.133 13.133 0 0 1-13.134-13.133V59.097l.32.394a20.638 20.638 0 0 0 2.57 2.87l.563.526q.656.563 1.313 1.032l.469.338q.938.638 1.914 1.182l.45.206q.788.413 1.614.75l.731.263a20.638 20.638 0 0 0 3.846.957q.357.075.732.113 1.145.15 2.364.15h185.744v48.781h-24.39c-13.098.514-23.453 11.282-23.453 24.39s10.355 23.877 23.452 24.391h24.391v43.153a13.133 13.133 0 0 1-13.133 13.133m24.39-69.42a9.381 9.381 0 0 1-9.38 9.382H293.8a20.657 20.657 0 0 1 0-41.277h26.267a9.381 9.381 0 0 1 9.381 9.381z"></path><path fill="#363636" d="M293.801 131.669a9.39 9.39 0 1 0 .02 18.78 9.39 9.39 0 0 0-.02-18.78m0 15.01a5.629 5.629 0 1 1 0-11.258 5.629 5.629 0 0 1 0 11.257m-98.875-4.315a1.876 1.876 0 0 0 2.626 0l45.592-45.554v17.974h3.752V92.268a1.876 1.876 0 0 0-1.876-1.876h-22.514v3.753h17.993l-44.26 44.26-32.458-32.46a1.876 1.876 0 0 0-2.627 0l-30.02 30.02 2.628 2.664 28.705-28.724z"></path><path fill="#363636" d="M252.525 127.916h-22.514v3.753h17.992l-51.764 51.764-30.582-30.582a1.876 1.876 0 0 0-2.627 0l-28.143 28.143 2.627 2.664 26.83-26.848 30.582 30.582a1.876 1.876 0 0 0 2.626 0l53.097-53.097v18.012h3.752v-22.515a1.876 1.876 0 0 0-1.876-1.876m18.762 48.781a5.629 5.629 0 0 1 5.629 5.629h3.752a9.381 9.381 0 0 0-7.505-9.193v-5.817h-3.752v5.817a9.381 9.381 0 0 0 1.876 18.574 5.629 5.629 0 1 1-5.629 5.629h-3.752a9.381 9.381 0 0 0 7.505 9.193v5.816h3.752v-5.816a9.381 9.381 0 0 0-1.876-18.574 5.629 5.629 0 1 1 0-11.258m-30.02 0a5.629 5.629 0 0 1 5.63 5.629h3.752a9.381 9.381 0 0 0-7.505-9.193v-5.817h-3.752v5.817a9.381 9.381 0 0 0 1.876 18.574 5.629 5.629 0 1 1-5.629 5.629h-3.752a9.381 9.381 0 0 0 7.505 9.193v5.816h3.752v-5.816a9.381 9.381 0 0 0-1.876-18.574 5.629 5.629 0 1 1 0-11.258M61.23 315.776h.78l19.34-56.06h4.88v-2.54H70.41v2.54h7.82l-15.34 46.09-15.72-46.09h7.91v-2.54h-16.8l6.64 18.75-10.25 29.69-16.5-45.9h7.91v-2.54H4.59v2.54h5.76l17.97 50.2q1.96 5.56 3.52 6.15.58.19 1.17.19h.78l12.7-35.84 10.45 29.5q1.75 4.98 2.83 5.56.58.3 1.46.3"></path><rect width="81.64" height="59.08" x="-40.82" y="-29.54" fill="none" rx="0" ry="0" transform="translate(45.91 287.22)"></rect><path fill="#363636" d="M110.55 275.736q6.84 0 9.08 5.76.78 1.85.78 4 0 4.89-4.68 5.96-2.45.49-6.94.39l-10.35-.29q.49-11.23 7.32-14.65 2.25-1.17 4.79-1.17m16.99 30.66-2.44-.88q-3.42 7.42-11.03 8.4-.98.1-1.86.1-10.25 0-12.89-12.21-.78-3.42-.88-7.52l11.72.2q11.91.19 15.33-2.25 2.64-1.95 2.64-5.57 0-6.64-6.74-10.54-4.79-2.83-11.04-2.83-12.2 0-17.48 10.15-2.73 5.27-2.73 11.92 0 12.1 8.69 17.96 5.18 3.42 11.82 3.42 10.54 0 15.52-7.61.79-1.37 1.37-2.74"></path><rect width="37.99" height="43.45" x="-19" y="-21.73" fill="none" rx="0" ry="0" transform="translate(109.64 295.52)"></rect><path fill="#363636" d="M169.73 316.746q7.52 0 8.3-9.08.1-.59.1-1.07l-2.54-.1q-.68 7.13-3.81 7.22-2.54-.19-2.64-5.07v-20.61q0-13.96-13.96-14.74h-1.76q-10.94 0-14.65 5.07-1.17 1.66-1.17 3.32 0 3.03 2.83 3.52.49.1.98.1 2.25 0 3.32-2.84 1.37-3.61 1.85-4.29 1.86-2.44 5.77-2.44 9.18.58 9.47 10.06v6.15q-22.95 0-26.27 9.57-.59 1.85-.59 4 0 7.42 6.55 10.16 2.63 1.07 5.56 1.07 7.13 0 12.01-4.88 1.76-1.86 2.64-3.91 1.17 8.69 8.01 8.79m-19.43-3.9q-5.96 0-7.33-5.96-.29-1.37-.29-3.03 0-6.54 7.52-8.3 4-.88 11.62-.98v7.82q-1.47 6.74-7.13 9.47-2.25.98-4.39.98"></path><rect width="43.17" height="43.45" x="-21.59" y="-21.73" fill="none" rx="0" ry="0" transform="translate(157.04 295.52)"></rect><path fill="#363636" d="M201.76 313.326h-5.27v-61.03h-14.65v2.44h7.32v52.73q0 4.5-2.54 5.38-1.46.48-4.78.48v2.45h22.36q0-2.15-1.46-2.35-.39-.1-.98-.1"></path><rect width="22.36" height="63.48" x="-11.18" y="-31.74" fill="none" rx="0" ry="0" transform="translate(193.52 284.54)"></rect><path fill="#363636" d="M208.79 274.266v2.44h6.84v27.54q.68 12.21 11.23 12.6 8.98 0 11.23-11.04v-.19l-2.64-.49q-2.44 8.11-7.13 8.79-5.27-.2-5.37-7.52v-29.69h15.14v-2.44h-15.14v-11.33l-7.32 2.05v9.28z"></path><rect width="29.3" height="53.91" x="-14.65" y="-26.95" fill="none" rx="0" ry="0" transform="translate(223.94 290.39)"></rect><path fill="#363636" d="M261.23 313.326h-4.88v-21.09q0-8.89 6.15-12.89 2.54-1.66 5.28-1.66 5.95 0 8.3 5.57 1.07 2.63 1.07 5.86v18.35q0 4.5-2.15 5.38-1.36.48-4.68.48v2.45h21.48q0-2.15-1.47-2.35-.39-.1-.97-.1h-4.88v-24.21q0-10.65-7.04-14.46-2.73-1.36-5.86-1.36-7.22 0-12.1 5.27-2.06 2.24-3.13 5.08v-31.35H241.7v2.44h7.33v52.73q0 4.5-2.54 5.38-1.47.48-4.79.48v2.45h21.97q0-2.15-1.46-2.35-.39-.1-.98-.1"></path><rect width="50.1" height="63.48" x="-25.05" y="-31.74" fill="none" rx="0" ry="0" transform="translate(267.25 284.54)"></rect><path fill="#363636" d="M306.94 276.706h7.32v-2.44h-19.34v2.44h4.4l12.21 32.72q2.05 5.56 4.2 6.44 1.07.39 2.63.39h1.96l8.49-25.58 6.54 18.75q1.86 5.47 3.81 6.44.98.39 2.64.39h1.56l11.82-36.03q.98-3.03 2.34-3.42.49-.1 1.08-.1 2.14 0 2.44-1.36.1-.49.1-1.08h-14.46v2.44h6.84l-10.84 33.69-11.43-33.69h6.84v-2.44h-15.04l4.39 12.4-8.1 24.03z"></path><rect width="66.22" height="41.99" x="-33.11" y="-21" fill="none" rx="0" ry="0" transform="translate(328.53 295.76)"></rect><path fill="#363636" d="M384.08 313.326h-4.88v-39.06h-15.13v2.44h7.81v30.76q0 4.5-3.03 5.47-1.46.39-4.78.39v2.45h22.46q0-2.15-1.47-2.35-.49-.1-.98-.1m-3.71-53.32q0-3.41-3.02-4.88-1.18-.49-2.25-.49-3.42 0-4.88 3.13-.49 1.07-.49 2.24 0 3.62 3.22 4.98 1.08.4 2.15.4 3.42 0 4.79-3.13.48-1.07.48-2.25"></path><rect width="22.46" height="61.14" x="-11.23" y="-30.57" fill="none" rx="0" ry="0" transform="translate(375.8 285.7)"></rect><path fill="#363636" d="M408.01 314.116q6.74 0 9.08-4.11.88-1.46.88-3.22 0-4.1-5.96-7.03-1.27-.68-4.19-1.95-8.01-3.32-10.65-6.25-2.83-3.23-2.83-7.52 0-6.74 7.42-9.48 3.42-1.26 7.42-1.26 6.45 0 11.14 2.73 0-2.83 1.36-3.22.59-.1 1.27-.1v12.21h-2.54q-.19-8.99-9.96-9.09-7.32 0-9.08 4.3-.49 1.17-.49 2.44 0 4.2 6.06 7.13 1.36.69 4.29 1.86 7.91 3.22 10.55 6.15 2.83 3.12 2.83 7.42 0 7.91-8.4 10.55-3.22 1.07-7.03 1.07-7.03-.1-12.2-3.51 0 2.54-1.27 2.93-.59.09-1.37.09v-14.84h2.73q.2 12.6 10.94 12.7"></path><rect width="30.27" height="44.04" x="-15.13" y="-22.02" fill="none" rx="0" ry="0" transform="translate(409.98 295.23)"></rect><path fill="#363636" d="M452.83 275.736q6.84 0 9.09 5.76.78 1.85.78 4 0 4.89-4.69 5.96-2.44.49-6.93.39l-10.35-.29q.48-11.23 7.32-14.65 2.25-1.17 4.78-1.17m17 30.66-2.44-.88q-3.42 7.42-11.04 8.4-.98.1-1.86.1-10.25 0-12.89-12.21-.78-3.42-.87-7.52l11.71.2q11.92.19 15.34-2.25 2.63-1.95 2.63-5.57 0-6.64-6.74-10.54-4.78-2.83-11.03-2.83-12.21 0-17.48 10.15-2.74 5.27-2.74 11.92 0 12.1 8.7 17.96 5.17 3.42 11.81 3.42 10.55 0 15.53-7.61.78-1.37 1.37-2.74"></path><rect width="37.99" height="43.45" x="-19" y="-21.73" fill="none" rx="0" ry="0" transform="translate(451.92 295.52)"></rect><path fill="#363636" d="M123.89 371.626h-6.13v-21.87h6.13q2.09 0 3.31.82 1.23.83 1.77 2.01.53 1.18.53 2.22 0 1.19-.55 2.18-.54.98-1.47 1.61 1.78.81 2.88 2.41 1.11 1.6 1.11 3.65 0 1.72-.86 3.33-.87 1.6-2.55 2.62-1.69 1.02-4.17 1.02m-3.36-11.67v9.19h3.16q1.8 0 2.89-.7 1.1-.71 1.61-1.78t.51-2.11q0-1.02-.49-2.09-.48-1.07-1.58-1.79-1.09-.72-2.94-.72zm0-7.72v5.39h3.14q1.43 0 2.32-.69.89-.69.89-1.98 0-1.34-.88-2.03-.87-.69-2.23-.69z"></path><rect width="13.71" height="21.87" x="-6.86" y="-10.94" fill="none" rx="0" ry="0" transform="translate(125.11 361.19)"></rect><path fill="#363636" d="M150.61 371.916q-2.28 0-4.09-1.02t-2.85-2.78q-1.03-1.76-1.03-3.93 0-2.06 1-3.75.99-1.69 2.68-2.69 1.69-.99 3.73-.99 2.02 0 3.7.96 1.68.96 2.67 2.59 1 1.62 1 3.69v1.07h-9.53q-.63 0-1.29-.05-.65-.05-1.29-.15.27 1.95 1.77 3.26 1.49 1.31 3.56 1.31 1.38 0 2.57-.63 1.2-.63 1.92-1.67l.73 2.98q-1.04.86-2.39 1.33-1.35.47-2.86.47m-5.37-8.82q1.31-.22 2.65-.22h4.84q.53 0 1.06.04.52.03 1.05.08-.34-1.7-1.7-2.8-1.36-1.11-3.09-1.11-1.77 0-3.11 1.18-1.33 1.18-1.7 2.83"></path><rect width="14.78" height="15.16" x="-7.39" y="-7.58" fill="none" rx="0" ry="0" transform="translate(150.53 364.84)"></rect><path fill="#363636" d="m196.48 358.166-5.08 14.19-8.43-22.6h2.82l4.96 13.12q.26.68.43 1.3.17.62.37 1.47.19-.85.38-1.47.18-.62.42-1.3l5.01-13.85 4.98 13.85q.22.61.43 1.23.2.62.37 1.54.2-.92.39-1.54.2-.62.44-1.23l4.96-13.12h2.62l-8.41 22.6-5.05-14.19q-.22-.64-.42-1.23-.19-.6-.39-1.52-.19.92-.38 1.52-.2.59-.42 1.23"></path><rect width="28.58" height="23.33" x="-14.29" y="-11.66" fill="none" rx="0" ry="0" transform="translate(197.76 361.19)"></rect><path fill="#363636" d="M229.53 371.916q-2.29 0-4.1-1.02-1.81-1.02-2.84-2.78-1.03-1.76-1.03-3.93 0-2.06.99-3.75 1-1.69 2.69-2.69 1.69-.99 3.73-.99 2.02 0 3.69.96 1.68.96 2.68 2.59.99 1.62.99 3.69v1.07h-9.52q-.64 0-1.29-.05-.66-.05-1.29-.15.27 1.95 1.76 3.26 1.5 1.31 3.56 1.31 1.39 0 2.58-.63 1.19-.63 1.92-1.67l.73 2.98q-1.05.86-2.4 1.33-1.34.47-2.85.47m-5.37-8.82q1.31-.22 2.65-.22h4.83q.54 0 1.06.04.52.03 1.06.08-.34-1.7-1.7-2.8-1.36-1.11-3.09-1.11-1.77 0-3.11 1.18-1.34 1.18-1.7 2.83"></path><rect width="14.77" height="15.16" x="-7.38" y="-7.58" fill="none" rx="0" ry="0" transform="translate(229.44 364.84)"></rect><path fill="#363636" d="M254.48 371.826q-1.99 0-3.65-1.01-1.65-1.01-2.63-2.71-.99-1.7-.99-3.77 0-2.07.99-3.77.98-1.7 2.63-2.71 1.66-1.01 3.65-1.01 1.51 0 2.83.56 1.33.56 2.3 1.56v-1.92h2.43v14.58h-2.43v-1.92q-.97.97-2.3 1.54-1.32.58-2.83.58m.34-2.39q1.39 0 2.52-.69 1.13-.69 1.8-1.85.66-1.15.66-2.56 0-1.41-.66-2.56-.67-1.16-1.8-1.85-1.13-.69-2.52-.69-1.38 0-2.51.69t-1.8 1.85q-.67 1.15-.67 2.56 0 1.41.67 2.56.67 1.16 1.8 1.85 1.13.69 2.51.69"></path><rect width="14.83" height="14.98" x="-7.42" y="-7.49" fill="none" rx="0" ry="0" transform="translate(255.13 364.84)"></rect><path fill="#363636" d="M277.73 371.626h-2.62v-23.33h2.62z"></path><rect width="2.62" height="23.33" x="-1.31" y="-11.66" fill="none" rx="0" ry="0" transform="translate(276.92 360.46)"></rect><path fill="#363636" d="M295.12 371.626h-2.62v-12.39h-3.31v-2.19h3.38v-4.86h2.48v4.86h3.62v2.19h-3.55z"></path><rect width="9.48" height="19.44" x="-4.74" y="-9.72" fill="none" rx="0" ry="0" transform="translate(294.43 362.4)"></rect><path fill="#363636" d="M312.76 371.626h-2.62v-23.33h2.62v10.81q.83-1.14 2.04-1.75 1.22-.6 2.6-.6 1.56 0 2.88.76 1.33.77 2.15 2.21.83 1.45.83 3.52v8.38h-2.62v-8.02q0-1.72-1.04-3.05-1.03-1.32-2.9-1.32-1.53 0-2.74 1.1-1.2 1.11-1.2 3.2z"></path><rect width="13.12" height="23.33" x="-6.56" y="-11.66" fill="none" rx="0" ry="0" transform="translate(317.2 360.46)"></rect><path fill="#363636" d="M338.27 378.916h-2.84l4.74-9.43-6.18-12.44h2.97l3.11 6.32q.41.85.8 1.67.39.83.78 2 .41-1.17.79-2.01.38-.84.81-1.66l3.16-6.32h2.8z"></path><rect width="15.22" height="21.87" x="-7.61" y="-10.94" fill="none" rx="0" ry="0" transform="translate(342.1 368.48)"></rect><path fill="#363636" d="M361.18 371.916q-.8 0-1.35-.54-.54-.55-.54-1.35t.54-1.35q.55-.55 1.35-.55.83 0 1.36.55.54.55.54 1.35t-.54 1.35q-.53.54-1.36.54"></path><rect width="3.79" height="3.79" x="-1.9" y="-1.9" fill="none" rx="0" ry="0" transform="translate(361.69 370.52)"></rect></svg></svg>